<svg xmlns="http://www.w3.org/2000/svg" viewBox="0 0 256 256" width="256" height="256" role="img" aria-label="OpenMarkdown app icon, ink">
  <rect x="4" y="4" width="248" height="248" rx="60" fill="#17171A" stroke="#9a9a9a" stroke-width="8"></rect>
  <g transform="translate(128,128) scale(1.25) translate(-104,-64)">
    <g fill="#9a9a9a">
    <polygon points="44,30 57,30 51,98 38,98"></polygon>
    <polygon points="77,30 90,30 84,98 71,98"></polygon>
    <polygon points="30,44 90,44 90,56 30,56"></polygon>
    <polygon points="30,73 90,73 90,85 30,85"></polygon>
  </g>
    <path transform="translate(68,0)" fill="#F4F0E6" d="M30 98V30h20l20 25 20-25h20v68H90V59L70 84 50 59v39z"></path>
  </g>
</svg>